<svg xmlns="http://www.w3.org/2000/svg" viewBox="0 0 184 112" shape-rendering="crispEdges">
  <g stroke="#171021" stroke-width="4" stroke-linejoin="miter">
    <!-- roof -->
    <path fill="#384354" d="M34 24h18V16h80v8h18l18 18H16z"/>
    <path fill="#ffd23f" d="M42 20h18v8H42zM124 20h18v8h-18z" stroke="none"/>
    <path fill="#ff6a2a" d="M82 8h20l8 16H74z"/>
    <!-- building -->
    <rect x="22" y="42" width="140" height="62" fill="#20283a"/>
    <rect x="34" y="50" width="116" height="22" fill="#f6f2e8"/>
    <rect x="42" y="54" width="100" height="14" fill="#d92333" stroke="none"/>
    <text x="92" y="66" text-anchor="middle" font-family="monospace" font-size="18" font-weight="900" fill="#fff" stroke="none">SLOT</text>
    <!-- windows / machines -->
    <rect x="42" y="80" width="22" height="24" fill="#70d4f2"/>
    <rect x="70" y="80" width="22" height="24" fill="#70d4f2"/>
    <rect x="98" y="80" width="22" height="24" fill="#70d4f2"/>
    <rect x="126" y="80" width="22" height="24" fill="#70d4f2"/>
    <rect x="48" y="86" width="10" height="5" fill="#fff" stroke="none"/>
    <rect x="76" y="86" width="10" height="5" fill="#ffd23f" stroke="none"/>
    <rect x="104" y="86" width="10" height="5" fill="#fff" stroke="none"/>
    <rect x="132" y="86" width="10" height="5" fill="#ffd23f" stroke="none"/>
    <!-- signs -->
    <rect x="2" y="54" width="18" height="50" fill="#ff8a21"/>
    <rect x="164" y="54" width="18" height="50" fill="#ff8a21"/>
    <rect x="6" y="60" width="10" height="7" fill="#ffd23f" stroke="none"/>
    <rect x="6" y="72" width="10" height="7" fill="#ffd23f" stroke="none"/>
    <rect x="6" y="84" width="10" height="7" fill="#ffd23f" stroke="none"/>
    <rect x="168" y="60" width="10" height="7" fill="#ffd23f" stroke="none"/>
    <rect x="168" y="72" width="10" height="7" fill="#ffd23f" stroke="none"/>
    <rect x="168" y="84" width="10" height="7" fill="#ffd23f" stroke="none"/>
  </g>
</svg>
